<?xml version="1.0" encoding="iso-8859-1"?>
<!-- Uploaded to: SVG Repo, www.svgrepo.com, Generator: SVG Repo Mixer Tools -->
<!DOCTYPE svg PUBLIC "-//W3C//DTD SVG 1.1//EN" "http://www.w3.org/Graphics/SVG/1.1/DTD/svg11.dtd">
<svg fill="#897455" version="1.1" id="Capa_1" xmlns="http://www.w3.org/2000/svg" xmlns:xlink="http://www.w3.org/1999/xlink" 
	 width="40px" height="40px" viewBox="0 0 585.781 585.781"
	 xml:space="preserve">
<g>
	<g>
		<path d="M293.812,25.877c-1.372-0.952-3.591-1.042-4.958-0.086L221.372,73.36c-1.367,0.961-2.094,0.335-2.094-1.334V39.079
			c0-1.669-2.118-2.553-3.792-2.553h-43.839c-1.668,0-2.347,0.884-2.347,2.553v67.951c0,1.668-1.444,3.801-2.816,4.757
			L0.956,228.206c-1.367,0.961-1.291,2.128,0.378,2.128h73.569c1.669,0,2.983,0.569,2.983,2.237v325.014
			c0,1.669,1.396,3.079,3.065,3.079h420.253c1.669,0,3.309-1.405,3.309-3.079V232.571c0-1.668,1.066-2.237,2.739-2.237h77.098
			c1.674,0,1.913-1.167,0.541-2.118L293.812,25.877z M406.956,215.043c12.627,0,22.864,10.236,22.864,22.864
			s-10.237,22.864-22.864,22.864s-22.864-10.236-22.864-22.864S394.329,215.043,406.956,215.043z M298.914,350.223
			c9.175,0,16.615,7.439,16.615,16.615c0,9.175-7.44,16.614-16.615,16.614c-9.175,0-16.615-7.439-16.615-16.614
			C282.299,357.662,289.739,350.223,298.914,350.223z M188.271,215c12.627,0,22.864,10.237,22.864,22.864
			s-10.237,22.864-22.864,22.864c-12.627,0-22.864-10.236-22.864-22.864C165.402,225.241,175.644,215,188.271,215z M457.135,391.207
			c-6.579,0-11.91-5.331-11.914-11.905c-0.005-0.004-0.015-72.761-0.015-72.761c0-0.684-0.555-1.238-1.238-1.238h-2.524
			c-0.684,0-1.238,0.555-1.238,1.238c0,0,0,204.126,0,204.146c0,8.486-6.881,15.366-15.367,15.366
			c-8.487,0-15.367-6.88-15.367-15.366c0-0.024,0-120.12,0-120.12c0-0.875-0.406-1.243-1.271-1.243h-2.477
			c-0.865,0-1.272,0.364-1.272,1.243c0,0,0,120.096,0,120.12c0,8.486-6.88,15.366-15.366,15.366c-8.487,0-15.367-6.88-15.367-15.366
			c0-0.024,0-204.146,0-204.146c0-0.684-0.555-1.238-1.238-1.238h-2.524c-0.684,0-1.238,0.555-1.238,1.238
			c0,0-9.764,59.067-9.778,59.13c-0.354,1.339-0.812,2.204-1.362,3.189c-2.61,4.661-27.053,52.378-27.053,52.378
			c-0.334,0.598-0.602,2.324-0.602,2.324s-0.048,88.381-0.12,89.064c-0.779,6.98-7.1,13.431-14.798,13.431
			c-8.147,0-14.066-6.789-14.186-14.224l-0.015-37.667c0-0.684-0.555-1.238-1.238-1.238h-1.86c-0.684,0-1.238,0.555-1.238,1.238
			l-0.005,37.471c-0.119,7.435-7.463,14.42-15.61,14.42c-8.147,0-14.621-7.023-14.741-14.458v-89.496
			c0-0.684-0.277-1.721-0.622-2.313l-26.933-50.562c-0.909-1.688-1.305-2.587-1.913-4.93c-0.048-0.129-17.949-58.437-17.949-58.437
			c-0.105-0.244-0.636-1.268-1.879-1.268c-0.115,0-2.51,0-2.51,0H214.3c-0.708-0.009-1.124,0.594-0.937,1.272l35.644,116.648
			c0.191,0.679,0,1.869-1.243,1.869h-25.006c-0.708,0-1.224,0.573-1.224,1.281c0,0,0.005,84.981,0.005,85.016
			c0,8.486-6.88,15.366-15.367,15.366c-8.486,0-15.367-6.88-15.367-15.366l-0.005-85.016c0-0.708-0.574-1.281-1.281-1.281H189.5
			h-2.458h-0.02c-0.708,0-1.281,0.573-1.281,1.281l-0.005,85.016c0,8.486-6.88,15.366-15.367,15.366s-15.367-6.88-15.367-15.366
			c0-0.029,0.005-85.016,0.005-85.016c0-0.708-0.516-1.281-1.224-1.281h-25.006c-1.243,0-1.434-1.19-1.243-1.869l35.645-116.648
			c0.187-0.679-0.225-1.286-0.937-1.272h-0.005c0,0-2.396,0-2.51,0c-1.243,0-1.779,1.019-1.879,1.268
			c0,0-17.806,58.054-17.811,58.054c-1.931,6.287-8.597,9.82-14.884,7.894c-6.292-1.932-9.83-8.597-7.898-14.884
			c0.009-0.023,17.795-58.106,17.853-58.308c2.725-9.461,9.352-31.005,28.08-31.005h50.232c20.096,0,25.293,21.544,28.014,31.005
			c0,0,18.04,58.986,18.111,59.331c2.955,5.178,15.491,31.097,15.491,31.097c0.339,0.594,1.171,1.076,1.855,1.076h41.745
			c1.463,0,2.247-0.469,2.94-1.664l14.563-30.208c2.1-14.635,8.73-60.923,8.73-61.745c0-16.308,12.542-28.849,28.224-28.849
			c0.397,0,36.376,0,36.376,0c9.883,0,30.959,0,31.36,0c15.678,0,28.224,12.541,28.229,28.849
			c0.005,0.976,0.005,82.749,0.005,82.788C469.05,385.871,463.714,391.207,457.135,391.207z"/>
	</g>
</g>
</svg>