<?xml version="1.0" encoding="UTF-8"?>
<svg version="1.1" xmlns="http://www.w3.org/2000/svg" width="500" height="500">
<path d="M0 0 C1.91219585 1.91219585 1.24435298 5.33645504 1.31640625 7.87890625 C1.33718735 8.5655687 1.35796844 9.25223114 1.37937927 9.95970154 C1.44494143 12.16052935 1.50379015 14.36147975 1.5625 16.5625 C1.60567892 18.05144514 1.649293 19.54037773 1.69335938 21.02929688 C1.8006293 24.68606553 1.90187772 28.34297318 2 32 C1.01 32 0.02 32 -1 32 C-1.32871094 31.10539062 -1.65742188 30.21078125 -1.99609375 29.2890625 C-6.28898036 18.37652146 -11.81115009 9.23955953 -22.765625 3.89453125 C-33.99583075 -0.60147769 -46.76384915 -0.39980322 -58 4 C-63.12774234 6.55072311 -67.15831958 9.7314662 -71 14 C-71.66 14.721875 -72.32 15.44375 -73 16.1875 C-84.52821867 32.39905751 -85.51583939 53.69001066 -82.30859375 72.8515625 C-79.84182392 84.69835117 -74.64630544 95.4477324 -65 103 C-54.26027389 109.90159448 -43.46126001 110.90971901 -31 109 C-24.50255551 107.41873035 -18.96695362 105.63582338 -14 101 C-13.34 101 -12.68 101 -12 101 C-11.71769531 100.40832031 -11.43539062 99.81664062 -11.14453125 99.20703125 C-10.11305199 97.21800128 -8.97602793 95.51326434 -7.6875 93.6875 C-2.36190996 85.27369799 0.13189386 74.68018636 2 65 C2.99 65 3.98 65 5 65 C5.34672032 69.25351535 5.62927364 73.50573313 5.86230469 77.76660156 C5.95385779 79.25157986 6.06380526 80.7355419 6.19238281 82.21777344 C7.26614567 94.68994207 7.26614567 94.68994207 4.30859375 100.0859375 C2.03582112 102.71840111 -0.26643721 104.85398653 -3 107 C-4.11375 107.88751953 -4.11375 107.88751953 -5.25 108.79296875 C-7.43437977 110.37274341 -9.6345498 111.70938431 -12 113 C-12.67675781 113.37769531 -13.35351562 113.75539063 -14.05078125 114.14453125 C-20.8851376 117.38569137 -28.24199646 118.02922187 -35.68847656 118.78588867 C-41.07084503 119.35458786 -41.07084503 119.35458786 -45.6328125 122.09375 C-46.08398438 122.7228125 -46.53515625 123.351875 -47 124 C-46.34773438 124.02578125 -45.69546875 124.0515625 -45.0234375 124.078125 C-39.13431877 124.4603097 -35.53793884 125.1602056 -31 129 C-29.142696 132.714608 -29.55717094 136.94593118 -30 141 C-32.34974073 145.88023075 -35.19101582 148.55178987 -40 151 C-47.23122517 153.17835044 -52.79184827 153.12699559 -60 151 C-60 150.01 -60 149.02 -60 148 C-59.41992188 147.90203125 -58.83984375 147.8040625 -58.2421875 147.703125 C-52.9116106 146.68275054 -49.25206157 145.40164926 -45 142 C-43.44061022 138.88122044 -43.6392166 136.42744229 -44 133 C-45.81384059 130.74030772 -45.81384059 130.74030772 -49 130 C-52.38200459 130.06712376 -55.66283333 130.46216537 -59 131 C-59.33 130.01 -59.66 129.02 -60 128 C-58.56640625 125.73828125 -58.56640625 125.73828125 -56.5625 123.3125 C-55.90378906 122.50425781 -55.24507812 121.69601563 -54.56640625 120.86328125 C-54.04949219 120.24839844 -53.53257812 119.63351563 -53 119 C-54.50626953 118.76216797 -54.50626953 118.76216797 -56.04296875 118.51953125 C-75.08684007 115.34438192 -92.35129946 108.45086175 -103.97265625 92.25 C-110.06320414 82.52581313 -113.52919471 71.48355504 -114 60 C-114.03996094 59.16339844 -114.07992187 58.32679688 -114.12109375 57.46484375 C-114.55369395 39.77912955 -109.91379018 24.28845828 -98 11 C-73.20214203 -13.46275178 -30.15300529 -13.76442606 0 0 Z " fill="#EFBF03" transform="translate(287,97)"/>
<path d="M0 0 C0.99 0.33 1.98 0.66 3 1 C3.495 4.96 3.495 4.96 4 9 C4.60328125 9.12117187 5.2065625 9.24234375 5.828125 9.3671875 C6.62734375 9.53476563 7.4265625 9.70234375 8.25 9.875 C9.03890625 10.03742188 9.8278125 10.19984375 10.640625 10.3671875 C13 11 13 11 15.0625 12.0625 C18.00253174 13.485096 20.79113695 13.12341781 24 13 C24.33 11.68 24.66 10.36 25 9 C27.475 9.495 27.475 9.495 30 10 C30.495 11.485 30.495 11.485 31 13 C30.53980469 13.65355469 30.07960938 14.30710938 29.60546875 14.98046875 C27.15690986 19.58566589 27.42763719 24.17080206 27.3125 29.3125 C27.27833984 30.33923828 27.24417969 31.36597656 27.20898438 32.42382812 C27.12676591 34.94910963 27.05753064 37.4740554 27 40 C29.64 40 32.28 40 35 40 C34.649375 39.236875 34.29875 38.47375 33.9375 37.6875 C33 35 33 35 34 32 C35.25664978 34.90600261 36 36.79604584 36 40 C36.66 40.33 37.32 40.66 38 41 C32.35738637 44.76174242 26.6291613 44.70638604 20 44 C17.63705982 43.23860817 16.08018264 42.38678843 14 41 C14.66 40.67 15.32 40.34 16 40 C16.34022786 38.00116131 16.67329097 36.00109278 17 34 C17.66 33.34 18.32 32.68 19 32 C18.125 37.75 18.125 37.75 17 40 C19.64 40 22.28 40 25 40 C24.67 32.74 24.34 25.48 24 18 C21.4609375 17.57682292 18.921875 17.15364583 16.3828125 16.73046875 C11.83896012 15.74929047 7.43582814 14.3821465 3 13 C3.06881974 18.07250914 3.15675694 23.14418939 3.26245117 28.21606445 C3.29571172 29.94155693 3.32374019 31.66715849 3.34643555 33.39282227 C3.37996153 35.87303166 3.43227406 38.3522403 3.48828125 40.83203125 C3.49467117 41.60400345 3.5010611 42.37597565 3.50764465 43.17134094 C3.58576453 47.31954619 3.58576453 47.31954619 5.40307617 50.94018555 C10.54472391 54.35249144 15.99805887 54.55713832 22 55 C22.33 55.99 22.66 56.98 23 58 C8.48 58 -6.04 58 -21 58 C-20.67 57.01 -20.34 56.02 -20 55 C-19.03900391 54.94392578 -19.03900391 54.94392578 -18.05859375 54.88671875 C-12.41793717 54.45799522 -8.01270902 53.66633458 -3 51 C-1.41769192 47.83538385 -1.75842187 44.40920633 -1.68359375 40.9296875 C-1.66281265 40.13345978 -1.64203156 39.33723206 -1.62062073 38.51687622 C-1.55515851 35.96967315 -1.49625585 33.42236575 -1.4375 30.875 C-1.3943116 29.14972873 -1.35069721 27.42446807 -1.30664062 25.69921875 C-1.19948055 21.46625315 -1.09820377 17.23318247 -1 13 C-1.845625 13.27714844 -2.69125 13.55429688 -3.5625 13.83984375 C-4.696875 14.20207031 -5.83125 14.56429687 -7 14.9375 C-8.11375 15.29714844 -9.2275 15.65679687 -10.375 16.02734375 C-14 17 -14 17 -22 18 C-22.33 25.26 -22.66 32.52 -23 40 C-20.36 40 -17.72 40 -15 40 C-15.5259375 38.8553125 -15.5259375 38.8553125 -16.0625 37.6875 C-17 35 -17 35 -16 32 C-14.74335022 34.90600261 -14 36.79604584 -14 40 C-13.34 40.33 -12.68 40.66 -12 41 C-17.64261363 44.76174242 -23.3708387 44.70638604 -30 44 C-32.36294018 43.23860817 -33.91981736 42.38678843 -36 41 C-35.01 40.505 -35.01 40.505 -34 40 C-33.65977214 38.00116131 -33.32670903 36.00109278 -33 34 C-32.34 33.34 -31.68 32.68 -31 32 C-31.875 37.75 -31.875 37.75 -33 40 C-30.36 40 -27.72 40 -25 40 C-25.08097224 36.41574799 -25.19380698 32.83318561 -25.3125 29.25 C-25.33505859 28.23421875 -25.35761719 27.2184375 -25.38085938 26.171875 C-25.41630859 25.1921875 -25.45175781 24.2125 -25.48828125 23.203125 C-25.51446533 22.30239258 -25.54064941 21.40166016 -25.56762695 20.47363281 C-26.07158456 17.59046034 -27.24544107 16.28621597 -29 14 C-28.1875 11.25 -28.1875 11.25 -27 9 C-25.35 9.33 -23.7 9.66 -22 10 C-22 10.99 -22 11.98 -22 13 C-16.45084776 13.33974401 -13.01828351 12.28103796 -8 10 C-6.01178687 9.60235737 -4.01267638 9.24544834 -2 9 C-1.855625 7.700625 -1.71125 6.40125 -1.5625 5.0625 C-1.125 1.125 -1.125 1.125 0 0 Z " fill="#F0BF02" transform="translate(249,126)"/>
<path d="M0 0 C0 3.3 0 6.6 0 10 C-0.66 10 -1.32 10 -2 10 C-3.34331654 8.00669158 -4.67594012 6.00615134 -6 4 C-10.04705893 1.30196071 -13.24792493 1.2296124 -18 2 C-22.21198913 4.45061186 -23.66779545 6.1478231 -25.4375 10.6875 C-26.59113032 16.97894781 -26.13338444 22.81139556 -23.1875 28.5 C-19.98073569 32.1648735 -18.41057229 32.87176616 -13.5625 33.3125 C-9.68224334 32.97212661 -7.97516528 32.4793044 -5 30 C-3.07359269 26.76638772 -1.71149714 23.69978515 -1 20 C-0.34 20 0.32 20 1 20 C1.35265443 23.72899408 1.49776878 27.27983336 1 31 C-2.72196436 35.4482013 -6.53030668 36.79666747 -12 38 C-11.34 38.66 -10.68 39.32 -10 40 C-9.5625 42.4375 -9.5625 42.4375 -10 45 C-12.1875 46.875 -12.1875 46.875 -15 48 C-17.8125 47.6875 -17.8125 47.6875 -20 47 C-19 45 -19 45 -16 44 C-15.67 43.01 -15.34 42.02 -15 41 C-16.65 41 -18.3 41 -20 41 C-19.67 40.01 -19.34 39.02 -19 38 C-19.59167969 37.75765625 -20.18335938 37.5153125 -20.79296875 37.265625 C-26.49864695 34.84559836 -31.03033796 32.64885585 -34.8125 27.5625 C-36.97423662 21.07729014 -36.95551888 14.09138461 -34.9375 7.5625 C-30.42112971 1.58923607 -26.21796394 -1.6866169 -18.69140625 -2.82421875 C-12.0794187 -3.25606119 -6.08748254 -2.66668894 0 0 Z " fill="#EFBF03" transform="translate(193,262)"/>
<path d="M0 0 C0 3.3 0 6.6 0 10 C-3 7 -3 7 -5.0625 4.3125 C-8.75374094 1.40662947 -11.02912239 1.27235012 -15.625 1.51171875 C-19.32453613 2.27231417 -20.85250058 3.98007894 -23 7 C-25.75771117 12.86747058 -26.18926608 19.19925272 -24.2421875 25.421875 C-22.42860927 29.33463434 -21.1364184 31.40307764 -17 33 C-12.56795959 33.32233021 -8.74605508 33.5311183 -5 31 C-3.77377037 28.7476546 -2.80841904 26.48930267 -1.89453125 24.09375 C-1 22 -1 22 1 20 C2.73525771 28.84809625 2.73525771 28.84809625 0.125 32.9375 C-3.74042274 35.48867901 -7.55028076 36.80759158 -12 38 C-11.01 38.66 -10.02 39.32 -9 40 C-9.1875 42.3125 -9.1875 42.3125 -10 45 C-12.3125 46.9375 -12.3125 46.9375 -15 48 C-17.3125 47.1875 -17.3125 47.1875 -19 46 C-18.360625 45.731875 -17.72125 45.46375 -17.0625 45.1875 C-14.66868314 44.11332248 -14.66868314 44.11332248 -14 41 C-15.65 41 -17.3 41 -19 41 C-19 40.01 -19 39.02 -19 38 C-19.99580078 37.56300781 -19.99580078 37.56300781 -21.01171875 37.1171875 C-27.815264 33.95875335 -31.57371561 31.27488201 -35.3125 24.6875 C-37.03914018 17.93790658 -36.55664382 11.07814504 -33 5 C-24.70564267 -4.3907379 -10.87793721 -4.81933927 0 0 Z " fill="#EFBF03" transform="translate(321,262)"/>
<path d="M0 0 C2.64 0 5.28 0 8 0 C7.67 0.66 7.34 1.32 7 2 C6.90367103 3.81041793 6.87018467 5.62452753 6.875 7.4375 C6.87113281 8.88962891 6.87113281 8.88962891 6.8671875 10.37109375 C6.88786027 13.11017829 6.88786027 13.11017829 8 16 C9.8522367 17.00478037 9.8522367 17.00478037 12 17 C13.74488217 15.92957631 13.74488217 15.92957631 15 14 C15.40108293 11.09750996 15.40108293 11.09750996 15.25 7.9375 C15.23453125 6.87402344 15.2190625 5.81054688 15.203125 4.71484375 C15.17511201 2.03419699 15.17511201 2.03419699 14 0 C19.28 0 24.56 0 30 0 C29.67 0.66 29.34 1.32 29 2 C28.960008 3.99960012 28.95653201 6.00047242 29 8 C32.24716062 4.51216486 32.24716062 4.51216486 33 0 C38.61 0 44.22 0 50 0 C49.34 0.33 48.68 0.66 48 1 C48.08708038 3.10494301 48.19525693 5.20902142 48.3125 7.3125 C48.37050781 8.48425781 48.42851562 9.65601563 48.48828125 10.86328125 C48.75110856 13.96525113 48.75110856 13.96525113 50.41015625 15.92578125 C51.97472832 17.21740427 51.97472832 17.21740427 54.125 16.875 C54.74375 16.58625 55.3625 16.2975 56 16 C57.03354508 12.89936477 57.13364996 10.68555932 57.125 7.4375 C57.12757813 6.46683594 57.13015625 5.49617188 57.1328125 4.49609375 C57.16650953 2.00047047 57.16650953 2.00047047 56 0 C57.98 0 59.96 0 62 0 C61.67 0.66 61.34 1.32 61 2 C60.72134114 5.56948729 60.55271521 9.13881679 60.37890625 12.71484375 C60 16 60 16 58 19 C53.76175762 20.31560373 50.06348921 20.46527653 46 18.6875 C44 17 44 17 43 15 C42.92883618 12.62597499 42.91590915 10.24999323 42.9375 7.875 C42.94652344 6.59367187 42.95554688 5.31234375 42.96484375 3.9921875 C42.97644531 3.00476563 42.98804688 2.01734375 43 1 C40.98963904 1.26374213 38.98811616 1.60187281 37 2 C35.59145334 3.81701858 35.59145334 3.81701858 35 6 C34.67 6.99 34.34 7.98 34 9 C35.13106417 11.06103528 35.13106417 11.06103528 36.8125 13.0625 C37.35519531 13.75472656 37.89789063 14.44695312 38.45703125 15.16015625 C40.01993127 17.07821381 40.01993127 17.07821381 42 19 C34.89006342 19.7230444 34.89006342 19.7230444 32.35546875 17.6640625 C31 16 31 16 29 13 C28.67 14.65 28.34 16.3 28 18 C28.66 18.33 29.32 18.66 30 19 C27.03 19 24.06 19 21 19 C21.66 18.67 22.32 18.34 23 18 C23 12.39 23 6.78 23 1 C21.68 1 20.36 1 19 1 C19.05220703 2.32064453 19.05220703 2.32064453 19.10546875 3.66796875 C19.13253906 4.82941406 19.15960938 5.99085938 19.1875 7.1875 C19.23970703 8.91033203 19.23970703 8.91033203 19.29296875 10.66796875 C18.97323533 14.3044035 18.18158273 16.1105914 16 19 C12.93570224 20.53214888 10.3834358 20.22938548 7 20 C4.125 18.6875 4.125 18.6875 2 17 C0.84429296 13.53287889 0.67164707 10.4585044 0.4375 6.8125 C0.35371094 5.54019531 0.26992187 4.26789063 0.18359375 2.95703125 C0.12300781 1.98121094 0.06242188 1.00539063 0 0 Z " fill="#EFBF02" transform="translate(158,312)"/>
<path d="M0 0 C0 3.3 0 6.6 0 10 C-0.99 8.68 -1.98 7.36 -3 6 C-6.63730068 4.88406983 -10.2152009 4.53432458 -14 4 C-14 8.95 -14 13.9 -14 19 C-9.94914321 18.75368443 -9.94914321 18.75368443 -6 18 C-4.4100567 16.07935207 -4.4100567 16.07935207 -4 14 C-3.34 14 -2.68 14 -2 14 C-2 18.29 -2 22.58 -2 27 C-2.66 27 -3.32 27 -4 27 C-4.33 26.01 -4.66 25.02 -5 24 C-7.10584438 23.19436362 -7.10584438 23.19436362 -9.5625 22.8125 C-10.80193359 22.57466797 -10.80193359 22.57466797 -12.06640625 22.33203125 C-13.02353516 22.16767578 -13.02353516 22.16767578 -14 22 C-13.91320858 24.46008778 -13.80639045 26.91643517 -13.6875 29.375 C-13.66494141 30.07367188 -13.64238281 30.77234375 -13.61914062 31.4921875 C-13.53015704 33.77288941 -13.53015704 33.77288941 -13 37 C-12.01 37.66 -11.02 38.32 -10 39 C-15.94 39 -21.88 39 -28 39 C-26.68 37.68 -25.36 36.36 -24 35 C-23.44838694 31.51794546 -23.44838694 31.51794546 -23.609375 27.609375 C-23.61786469 26.55245453 -23.61786469 26.55245453 -23.62652588 25.47418213 C-23.64884922 23.23208572 -23.69903246 20.99161012 -23.75 18.75 C-23.77007048 17.22658565 -23.7883203 15.70314614 -23.8046875 14.1796875 C-23.84869882 10.4526017 -23.91769628 6.72645913 -24 3 C-25.32 2.67 -26.64 2.34 -28 2 C-28 1.67 -28 1.34 -28 1 C-23.52084435 0.83303633 -19.0416737 0.66647858 -14.5625 0.5 C-13.28310547 0.45230469 -12.00371094 0.40460938 -10.68554688 0.35546875 C-9.47060547 0.31035156 -8.25566406 0.26523437 -7.00390625 0.21875 C-5.87799072 0.17685547 -4.7520752 0.13496094 -3.59204102 0.09179688 C-1 0 -1 0 0 0 Z " fill="#EFBF03" transform="translate(246,259)"/>
<path d="M0 0 C11.55 0 23.1 0 35 0 C35 3.3 35 6.6 35 10 C34.34 10 33.68 10 33 10 C32.76539063 9.36578125 32.53078125 8.7315625 32.2890625 8.078125 C31.17709092 5.81749261 31.17709092 5.81749261 28.8359375 5.171875 C28.02382813 5.03265625 27.21171875 4.8934375 26.375 4.75 C25.55773437 4.60046875 24.74046875 4.4509375 23.8984375 4.296875 C23.27195312 4.19890625 22.64546875 4.1009375 22 4 C22.06875021 8.66361951 22.15665125 13.3263314 22.26245117 17.98925781 C22.2957398 19.57606965 22.32375947 21.16300103 22.34643555 22.75 C22.37991078 25.02916484 22.4322186 27.30723041 22.48828125 29.5859375 C22.49467117 30.29744965 22.5010611 31.00896179 22.50764465 31.74203491 C22.54009648 33.9600456 22.54009648 33.9600456 23 37 C23.99 37.66 24.98 38.32 26 39 C20.39 39 14.78 39 9 39 C9.99 38.01 10.98 37.02 12 36 C12.3307063 33.49271968 12.4882718 31.21862613 12.51171875 28.70703125 C12.52966995 28.00100266 12.54762115 27.29497406 12.56611633 26.56755066 C12.62023178 24.31592759 12.65411722 22.06451657 12.6875 19.8125 C12.72067219 18.28447569 12.75516177 16.75647937 12.79101562 15.22851562 C12.87595825 11.48583011 12.94276248 7.74320759 13 4 C11.39272673 4.22917968 9.78912584 4.48420802 8.1875 4.75 C7.29417969 4.88921875 6.40085938 5.0284375 5.48046875 5.171875 C2.47106072 5.91522246 2.47106072 5.91522246 0 10 C0 6.7 0 3.4 0 0 Z " fill="#EFBE03" transform="translate(249,259)"/>
<path d="M0 0 C2.64 0 5.28 0 8 0 C7.67 0.66 7.34 1.32 7 2 C6.90367103 3.81041793 6.87018467 5.62452753 6.875 7.4375 C6.87113281 8.88962891 6.87113281 8.88962891 6.8671875 10.37109375 C6.88786027 13.11017829 6.88786027 13.11017829 8 16 C9.8522367 17.00478037 9.8522367 17.00478037 12 17 C13.74488217 15.92957631 13.74488217 15.92957631 15 14 C15.40108293 11.09750996 15.40108293 11.09750996 15.25 7.9375 C15.23453125 6.87402344 15.2190625 5.81054688 15.203125 4.71484375 C15.17511201 2.03419699 15.17511201 2.03419699 14 0 C17.4372166 -0.11604679 20.87393086 -0.18719508 24.3125 -0.25 C25.28896484 -0.28351563 26.26542969 -0.31703125 27.27148438 -0.3515625 C28.20927734 -0.36445313 29.14707031 -0.37734375 30.11328125 -0.390625 C30.97735596 -0.41157227 31.84143066 -0.43251953 32.73168945 -0.45410156 C35 0 35 0 36.82495117 1.86816406 C38.37545927 4.68117813 37.83516852 5.96302357 37 9 C36.98352501 13.29558621 36.98352501 13.29558621 39.5 16.25 C40.325 17.1575 41.15 18.065 42 19 C36.80310881 19.70466321 36.80310881 19.70466321 34 19 C31.78043995 16.59591596 30.37246019 13.95606811 29 11 C28.79029441 15.14093698 28.79029441 15.14093698 30 19 C27.03 19 24.06 19 21 19 C21.66 18.67 22.32 18.34 23 18 C23 12.39 23 6.78 23 1 C21.68 1 20.36 1 19 1 C19.05220703 2.32064453 19.05220703 2.32064453 19.10546875 3.66796875 C19.13253906 4.82941406 19.15960938 5.99085938 19.1875 7.1875 C19.23970703 8.91033203 19.23970703 8.91033203 19.29296875 10.66796875 C18.97323533 14.3044035 18.18158273 16.1105914 16 19 C12.93570224 20.53214888 10.3834358 20.22938548 7 20 C4.125 18.6875 4.125 18.6875 2 17 C0.84429296 13.53287889 0.67164707 10.4585044 0.4375 6.8125 C0.35371094 5.54019531 0.26992188 4.26789063 0.18359375 2.95703125 C0.12300781 1.98121094 0.06242187 1.00539063 0 0 Z M28 2 C28 4.31 28 6.62 28 9 C29.32 8.67 30.64 8.34 32 8 C32 6.35 32 4.7 32 3 C30.68 2.67 29.36 2.34 28 2 Z " fill="#EFBF03" transform="translate(266,312)"/>
<path d="M0 0 C5.94 0 11.88 0 18 0 C18 0.66 18 1.32 18 2 C17.01 2.33 16.02 2.66 15 3 C14.92594113 7.66305038 14.87144237 12.32575984 14.83520508 16.98925781 C14.82010186 18.57623251 14.79961777 20.16316537 14.77368164 21.75 C14.73736405 24.02875073 14.72028977 26.30695058 14.70703125 28.5859375 C14.68380547 29.65320572 14.68380547 29.65320572 14.66011047 30.74203491 C14.62453492 32.95754404 14.62453492 32.95754404 15 36 C15.99 36.66 16.98 37.32 18 38 C12.06 38 6.12 38 0 38 C1.32 36.68 2.64 35.36 4 34 C4.61488546 30.78338961 4.61488546 30.78338961 4.53125 27.1875 C4.5350769 26.53676514 4.53890381 25.88603027 4.54284668 25.21557617 C4.54556076 23.84389696 4.53823453 22.47216556 4.52148438 21.10058594 C4.50006119 19.00598315 4.52129637 16.91480916 4.546875 14.8203125 C4.54423163 13.48436746 4.53910643 12.14842455 4.53125 10.8125 C4.52673828 9.60207031 4.52222656 8.39164062 4.51757812 7.14453125 C4.22245044 3.44528141 4.22245044 3.44528141 0 0 Z " fill="#EFBF03" transform="translate(326,260)"/>
<path d="M0 0 C5.61 0 11.22 0 17 0 C17 0.66 17 1.32 17 2 C16.01 2.33 15.02 2.66 14 3 C13.67 13.89 13.34 24.78 13 36 C14.32 36.66 15.64 37.32 17 38 C11.39 38 5.78 38 0 38 C0.99 37.01 1.98 36.02 3 35 C3.26153069 32.41225229 3.34958438 30.07100347 3.29296875 27.48828125 C3.28872391 26.76005661 3.28447906 26.03183197 3.28010559 25.28153992 C3.26332733 22.95814873 3.22567855 20.6356285 3.1875 18.3125 C3.17245197 16.73634066 3.15876377 15.16016771 3.14648438 13.58398438 C3.11342685 9.72232123 3.06165194 5.86130822 3 2 C2.01 2 1.02 2 0 2 C0 1.34 0 0.68 0 0 Z " fill="#EFBF03" transform="translate(198,260)"/>
<path d="M0 0 C1.56348581 3.81099666 1.66435153 7.3863999 1 11.4375 C-1.11391877 14.93640004 -2.11736059 16.14328686 -6 17.4375 C-10.98758297 17.80695059 -14.04959346 17.61977193 -18 14.4375 C-20.57648705 11.43159844 -21.24443655 9.24284886 -21 5.375 C-20.45381331 2.22848973 -20.02151061 1.46080316 -17.75 -1 C-11.85429919 -4.34983001 -5.48185016 -4.28269543 0 0 Z M-13.6328125 0.6796875 C-15.78671049 3.44898492 -15.47180223 5.87370152 -15.35546875 9.26953125 C-15.11802731 11.65172333 -15.11802731 11.65172333 -13.25 14.0625 C-11.14616402 15.61674844 -11.14616402 15.61674844 -8.9375 15.4375 C-6.24021753 14.04535421 -5.32176983 13.22017333 -4 10.4375 C-3.95619902 7.36048118 -4.23416571 4.42022303 -5 1.4375 C-6.82203581 -0.79216747 -6.82203581 -0.79216747 -9.4375 -0.875 C-11.99700007 -0.78160891 -11.99700007 -0.78160891 -13.6328125 0.6796875 Z " fill="#F0BF02" transform="translate(327,314.5625)"/>
<path d="M0 0 C2.97 0 5.94 0 9 0 C8.01 0.495 8.01 0.495 7 1 C7 3.64 7 6.28 7 9 C9.31 9 11.62 9 14 9 C14 6.36 14 3.72 14 1 C13.34 0.67 12.68 0.34 12 0 C14.97 0 17.94 0 21 0 C20.67 0.66 20.34 1.32 20 2 C19.90207108 4.5115887 19.86092017 6.98909766 19.875 9.5 C19.87113281 10.18964844 19.86726563 10.87929688 19.86328125 11.58984375 C19.80959134 15.42166214 19.80959134 15.42166214 21 19 C18.03 19 15.06 19 12 19 C12.66 18.67 13.32 18.34 14 18 C14 15.69 14 13.38 14 11 C11.69 11 9.38 11 7 11 C7 13.31 7 15.62 7 18 C7.66 18.33 8.32 18.66 9 19 C6.03 19 3.06 19 0 19 C0.33 18.34 0.66 17.68 1 17 C1.09792892 14.4884113 1.13907983 12.01090234 1.125 9.5 C1.12886719 8.81035156 1.13273438 8.12070312 1.13671875 7.41015625 C1.19040866 3.57833786 1.19040866 3.57833786 0 0 Z " fill="#EFBE03" transform="translate(135,312)"/>
<path d="M0 0 C1.93719378 -0.05406122 3.87481921 -0.09282025 5.8125 -0.125 C6.89144531 -0.14820313 7.97039062 -0.17140625 9.08203125 -0.1953125 C12 0 12 0 15 2 C15.0448635 4.33290199 15.03888349 6.66699067 15 9 C15.391875 10.051875 15.78375 11.10375 16.1875 12.1875 C17 15 17 15 16 17.16015625 C13.03982498 19.88328601 10.75171348 19.39455829 6.8125 19.25 C5.54019531 19.21390625 4.26789063 19.1778125 2.95703125 19.140625 C1.98121094 19.09421875 1.00539062 19.0478125 0 19 C0.33 18.34 0.66 17.68 1 17 C1.09792892 14.4884113 1.13907983 12.01090234 1.125 9.5 C1.12886719 8.81035156 1.13273438 8.12070312 1.13671875 7.41015625 C1.19040866 3.57833786 1.19040866 3.57833786 0 0 Z M7 2 C7 3.98 7 5.96 7 8 C7.99 7.67 8.98 7.34 10 7 C9.65213292 5.02463255 9.65213292 5.02463255 9 3 C8.34 2.67 7.68 2.34 7 2 Z M7 10 C7 12.31 7 14.62 7 17 C7.99 17 8.98 17 10 17 C11.00217064 13.41672247 11.00217064 13.41672247 10 10 C9.01 10 8.02 10 7 10 Z " fill="#F0BF03" transform="translate(248,312)"/>
<path d="M0 0 C2.97 0 5.94 0 9 0 C8.67 0.66 8.34 1.32 8 2 C7.960008 3.99960012 7.95653201 6.00047242 8 8 C8.66 6.865625 9.32 5.73125 10 4.5625 C10.37125 3.92441406 10.7425 3.28632813 11.125 2.62890625 C12.07886962 1.16134961 12.07886962 1.16134961 12 0 C14.31 0 16.62 0 19 0 C18.55527344 0.45890625 18.11054688 0.9178125 17.65234375 1.390625 C17.08644531 2.00421875 16.52054688 2.6178125 15.9375 3.25 C15.36902344 3.85328125 14.80054688 4.4565625 14.21484375 5.078125 C12.80031313 6.89973867 12.80031313 6.89973867 13.125 8.96875 C14.15666044 11.36367601 15.45510305 13.19800389 17.0625 15.25 C17.88427734 16.30960937 17.88427734 16.30960937 18.72265625 17.390625 C19.35494141 18.18726563 19.35494141 18.18726563 20 19 C16.8125 19.375 16.8125 19.375 13 19 C10.8596502 17.18811972 9.61011698 15.34198833 8 13 C7.67 14.65 7.34 16.3 7 18 C7.66 18.33 8.32 18.66 9 19 C6.03 19 3.06 19 0 19 C0.66 18.67 1.32 18.34 2 18 C1.85946128 15.37461716 1.71281053 12.74982573 1.5625 10.125 C1.50352539 9.00544922 1.50352539 9.00544922 1.44335938 7.86328125 C1.28426376 3.80013136 1.28426376 3.80013136 0 0 Z " fill="#EFBF02" transform="translate(221,312)"/>
<path d="M0 0 C2.64 0 5.28 0 8 0 C7.67 0.66 7.34 1.32 7 2 C6.90367103 3.81041793 6.87018467 5.62452753 6.875 7.4375 C6.87113281 8.88962891 6.87113281 8.88962891 6.8671875 10.37109375 C6.88786027 13.11017829 6.88786027 13.11017829 8 16 C9.8522367 17.00478037 9.8522367 17.00478037 12 17 C13.74488217 15.92957631 13.74488217 15.92957631 15 14 C15.40108293 11.09750996 15.40108293 11.09750996 15.25 7.9375 C15.23453125 6.87402344 15.2190625 5.81054688 15.203125 4.71484375 C15.17511201 2.03419699 15.17511201 2.03419699 14 0 C16.31 0 18.62 0 21 0 C20.01 0.495 20.01 0.495 19 1 C19.05220703 2.32064453 19.05220703 2.32064453 19.10546875 3.66796875 C19.13253906 4.82941406 19.15960938 5.99085938 19.1875 7.1875 C19.23970703 8.91033203 19.23970703 8.91033203 19.29296875 10.66796875 C18.97323533 14.3044035 18.18158273 16.1105914 16 19 C12.93570224 20.53214888 10.3834358 20.22938548 7 20 C4.125 18.6875 4.125 18.6875 2 17 C0.84429296 13.53287889 0.67164707 10.4585044 0.4375 6.8125 C0.35371094 5.54019531 0.26992188 4.26789063 0.18359375 2.95703125 C0.12300781 1.98121094 0.06242187 1.00539063 0 0 Z " fill="#F0C002" transform="translate(345,312)"/>
<path d="M0 0 C0 1.65 0 3.3 0 5 C-0.66 4.67 -1.32 4.34 -2 4 C-2 3.34 -2 2.68 -2 2 C-3.65 2.33 -5.3 2.66 -7 3 C-6.2575 3.7425 -5.515 4.485 -4.75 5.25 C-3.8425 6.1575 -2.935 7.065 -2 8 C-1.21625 8.639375 -0.4325 9.27875 0.375 9.9375 C2 12 2 12 2 15.125 C1 18 1 18 -0.765625 19.203125 C-3.38345332 20.13675608 -5.01568819 20.02710468 -7.75 19.625 C-8.54921875 19.51414062 -9.3484375 19.40328125 -10.171875 19.2890625 C-11.07679688 19.14597656 -11.07679688 19.14597656 -12 19 C-12 17.02 -12 15.04 -12 13 C-11.34 13 -10.68 13 -10 13 C-9.67 13.99 -9.34 14.98 -9 16 C-7.35 16.33 -5.7 16.66 -4 17 C-4.04768403 15.12119128 -4.04768403 15.12119128 -5 13 C-5.99 12.38125 -6.98 11.7625 -8 11.125 C-11 9 -11 9 -12 5.9375 C-12 3 -12 3 -10 0 C-6.55547211 -1.47622624 -3.58454175 -0.73320172 0 0 Z " fill="#F0C002" transform="translate(342,312)"/>
<path d="M0 0 C2.625 0.375 2.625 0.375 5 1 C5.625 3.375 5.625 3.375 6 6 C5.34 6.66 4.68 7.32 4 8 C1.375 7.625 1.375 7.625 -1 7 C-1.625 4.625 -1.625 4.625 -2 2 C-1.34 1.34 -0.68 0.68 0 0 Z " fill="#F1C102" transform="translate(333,250)"/>
<path d="M0 0 C1.67542976 0.28604898 3.34385343 0.61781233 5 1 C5.625 3.375 5.625 3.375 6 6 C5.34 6.66 4.68 7.32 4 8 C1.375 7.625 1.375 7.625 -1 7 C-1.04254356 5.00045254 -1.04080783 2.99958364 -1 1 C-0.67 0.67 -0.34 0.34 0 0 Z " fill="#F0C002" transform="translate(204,250)"/>
<path d="M0 0 C2.1755306 2.1755306 2.71879553 3.55973892 3.6875 6.4375 C3.95949219 7.21996094 4.23148437 8.00242188 4.51171875 8.80859375 C5 11 5 11 4 14 C3.32739649 12.23141309 2.66211605 10.46003984 2 8.6875 C1.62875 7.70136719 1.2575 6.71523437 0.875 5.69921875 C0 3 0 3 0 0 Z " fill="#F2BF01" transform="translate(277,144)"/>
<path d="M0 0 C1.25955231 3.77865693 0.48087189 5.03411786 -0.9375 8.6875 C-1.31777344 9.68136719 -1.69804687 10.67523438 -2.08984375 11.69921875 C-2.39019531 12.45847656 -2.69054687 13.21773437 -3 14 C-4.25955231 10.22134307 -3.48087189 8.96588214 -2.0625 5.3125 C-1.68222656 4.31863281 -1.30195313 3.32476562 -0.91015625 2.30078125 C-0.60980469 1.54152344 -0.30945313 0.78226563 0 0 Z " fill="#F2BF00" transform="translate(272,144)"/>
<path d="M0 0 C1.25955231 3.77865693 0.48087189 5.03411786 -0.9375 8.6875 C-1.31777344 9.68136719 -1.69804687 10.67523438 -2.08984375 11.69921875 C-2.39019531 12.45847656 -2.69054687 13.21773437 -3 14 C-4.25955231 10.22134307 -3.48087189 8.96588214 -2.0625 5.3125 C-1.68222656 4.31863281 -1.30195313 3.32476562 -0.91015625 2.30078125 C-0.60980469 1.54152344 -0.30945313 0.78226563 0 0 Z " fill="#F0BF01" transform="translate(222,144)"/>
<path d="M0 0 C2.1755306 2.1755306 2.71879553 3.55973892 3.6875 6.4375 C3.95949219 7.21996094 4.23148438 8.00242188 4.51171875 8.80859375 C5 11 5 11 4 14 C3.32739649 12.23141309 2.66211605 10.46003984 2 8.6875 C1.62875 7.70136719 1.2575 6.71523437 0.875 5.69921875 C0 3 0 3 0 0 Z " fill="#F2BF00" transform="translate(227,144)"/>
<path d="M0 0 C0.99 0 1.98 0 3 0 C3 1.32 3 2.64 3 4 C1.68 4 0.36 4 -1 4 C-0.67 2.68 -0.34 1.36 0 0 Z " fill="#F1C302" transform="translate(279,307)"/>
<path d="M0 0 C1.32 0.33 2.64 0.66 4 1 C4 1.99 4 2.98 4 4 C2.68 4 1.36 4 0 4 C0 2.68 0 1.36 0 0 Z " fill="#F1C002" transform="translate(272,307)"/>
</svg>
